<svg width="42" height="42" viewBox="0 0 42 42" fill="none" xmlns="http://www.w3.org/2000/svg">
<path d="M29.0322 13.4229C21.8042 6.21338 12.7742 3.92044 8.48759 8.20838C4.20096 12.4963 6.49259 21.5263 13.7205 28.7359C18.481 33.4963 24.0276 36.1213 28.4901 36.1213C30.783 36.1213 32.7951 35.4218 34.2651 33.9688C38.5347 29.6809 36.243 20.6509 29.0322 13.4243V13.4229ZM9.93921 9.66C10.9721 8.62706 12.4592 8.1375 14.2088 8.1375C15.5042 8.1375 16.9558 8.43544 18.4613 8.96044L9.23834 18.1834C7.9954 14.6488 8.11877 11.4634 9.9379 9.66131L9.93921 9.66ZM10.1676 20.4054L20.6846 9.88838L20.6492 9.85294C22.9946 11.0079 25.3913 12.705 27.5792 14.8759C29.5388 16.8354 31.1138 18.9879 32.2517 21.1063L32.2347 21.0893L21.3672 31.9568C19.2501 30.8188 17.1147 29.2438 15.1551 27.3013C13.0026 25.1318 11.3226 22.7509 10.1676 20.4068V20.4054ZM32.7951 32.5146C30.8526 34.4571 27.3351 34.4741 23.538 32.9516L33.2505 23.2562C34.756 27.0716 34.7376 30.5708 32.7951 32.5133V32.5146Z" fill="white"/>
</svg>
