<svg width="25" height="23" viewBox="0 0 25 23" fill="none" xmlns="http://www.w3.org/2000/svg">
<path d="M14.1357 0.712158C12.6546 0.712158 11.263 0.988851 9.96094 1.54224C8.65885 2.09562 7.51953 2.85246 6.54297 3.81274C5.56641 4.77303 4.78516 5.89608 4.19922 7.18188C3.61328 8.48397 3.30404 9.86743 3.27148 11.3323H0L4.88281 16.801L9.79004 11.3323H5.98145C6.014 10.2418 6.25 9.21639 6.68945 8.2561C7.12891 7.29582 7.71484 6.4576 8.44727 5.74145C9.17969 5.02531 10.0342 4.46379 11.0107 4.05688C11.9873 3.63371 13.029 3.42212 14.1357 3.42212C15.2588 3.42212 16.3167 3.64185 17.3096 4.0813C18.3024 4.50448 19.165 5.09041 19.8975 5.83911C20.6299 6.57153 21.2077 7.43416 21.6309 8.427C22.0703 9.41984 22.29 10.4778 22.29 11.6008C22.29 12.7402 22.0703 13.8062 21.6309 14.7991C21.2077 15.7919 20.6299 16.6627 19.8975 17.4114C19.165 18.1438 18.3024 18.7216 17.3096 19.1448C16.3167 19.568 15.2588 19.7795 14.1357 19.7795C13.2243 19.7795 12.3617 19.6412 11.5479 19.3645C10.734 19.0878 9.98535 18.6972 9.30176 18.1926L7.44629 20.1946C8.35775 20.927 9.38314 21.4967 10.5225 21.9036C11.6618 22.3105 12.8662 22.5139 14.1357 22.5139C15.6331 22.5139 17.041 22.2291 18.3594 21.6594C19.6777 21.0898 20.8252 20.3166 21.8018 19.3401C22.7946 18.3472 23.5758 17.1835 24.1455 15.8489C24.7152 14.5305 25 13.1145 25 11.6008C25 10.1034 24.7152 8.68742 24.1455 7.35278C23.5758 6.03442 22.7946 4.88696 21.8018 3.9104C20.8252 2.91756 19.6777 2.13631 18.3594 1.56665C17.041 0.996989 15.6331 0.712158 14.1357 0.712158ZM13.1592 5.76587V11.9915L17.1631 15.9954L18.4814 14.677L15.0146 11.2346V5.76587H13.1592Z" fill="#F9F9F9"/>
</svg>
