<svg width="11" height="11" viewBox="0 0 11 11" fill="none" xmlns="http://www.w3.org/2000/svg">
<path d="M5.80028 0.229187C2.99387 0.229187 0.712646 2.51041 0.712646 5.31682C0.712646 8.12322 2.99387 10.4044 5.80028 10.4044C8.60668 10.4044 10.8879 8.12322 10.8879 5.31682C10.8879 2.51041 8.60668 0.229187 5.80028 0.229187ZM7.33203 2.05089L5.94798 1.34518V0.978655C6.94909 1.01148 7.90644 1.39442 8.66138 2.05089H7.33203ZM8.97321 2.35177C9.42726 2.83865 9.7555 3.41306 9.95244 4.04764L9.17562 5.40435L8.03227 5.22929L6.99286 3.43494L7.40862 2.3463C7.41409 2.35177 8.97321 2.35177 8.97321 2.35177ZM6.65915 3.63735L7.66027 5.37699L6.77951 6.89781H4.82104L3.94028 5.37152L4.9414 3.63188H6.65915V3.63735ZM5.65257 1.34518L4.26852 2.05089H2.9337C3.68864 1.38895 4.64599 1.01148 5.6471 0.978655V1.34518H5.65257ZM4.18646 2.35177L4.60222 3.44041L3.56828 5.22929L2.43041 5.40435L1.64264 4.0367C1.83958 3.40759 2.17329 2.83318 2.63282 2.35177H4.18646ZM2.26082 5.70523L2.33193 7.13851L1.96541 7.35734C1.62623 6.72822 1.45117 6.02799 1.45117 5.31135C1.45117 5.02688 1.47853 4.73147 1.54417 4.45247L2.26082 5.70523ZM2.46323 7.41204L3.71599 8.21075L4.40528 9.43068C3.45887 9.11339 2.64376 8.46786 2.11311 7.61445L2.46323 7.41204ZM4.06063 8.22716L4.82104 7.29169H6.77404L7.53445 8.22716L6.77404 9.5401C6.45127 9.61668 6.12851 9.65498 5.79481 9.66045C5.4611 9.66045 5.13834 9.62215 4.81557 9.5401L4.06063 8.22716ZM7.19527 9.41974L7.88456 8.21622L9.13732 7.41751L9.48197 7.61993C8.95132 8.46239 8.14168 9.10245 7.19527 9.41974ZM9.26315 7.13851L9.33426 5.70523L10.0564 4.45794C10.1111 4.73694 10.1439 5.02141 10.1494 5.31135C10.1494 6.02799 9.97432 6.72822 9.63514 7.35734L9.26315 7.13851Z" fill="#22B14C"/>
</svg>
