<svg width="42" height="42" viewBox="0 0 42 42" fill="none" xmlns="http://www.w3.org/2000/svg">
<g clip-path="url(#clip0_1_4243)">
<path d="M21 0C9.41719 0 0 9.41719 0 21C0 32.5828 9.41719 42 21 42C32.5828 42 42 32.5828 42 21C42 9.41719 32.5828 0 21 0ZM33.7313 29.2359C34.2563 29.7281 34.2563 30.5813 33.7641 31.1063C33.5016 31.3688 33.1734 31.5 32.8125 31.5C32.4844 31.5 32.1562 31.3687 31.8937 31.1391C29.1047 28.4156 27.5625 24.8391 27.5625 21C27.5625 17.1609 29.1047 13.5844 31.9266 10.8609C32.4516 10.3687 33.2719 10.3688 33.7969 10.8938C34.2891 11.4187 34.2891 12.2391 33.7641 12.7641C31.4344 14.9625 30.1875 17.8828 30.1875 21C30.1875 24.1172 31.4344 27.0375 33.7313 29.2359ZM10.1062 31.1391C9.84375 31.4016 9.51562 31.5 9.1875 31.5C8.85938 31.5 8.49844 31.3688 8.23594 31.1063C7.74375 30.5813 7.74375 29.7609 8.26875 29.2359C10.5656 27.0375 11.8125 24.1172 11.8125 21C11.8125 17.8828 10.5656 14.9625 8.30156 12.7312C7.77656 12.2391 7.77656 11.3859 8.26875 10.8609C8.76094 10.3359 9.61406 10.3359 10.1391 10.8281C12.8953 13.5516 14.4375 17.1609 14.4375 21C14.4375 24.8391 12.8953 28.4484 10.1062 31.1391Z" fill="white"/>
</g>
<defs>
<clipPath id="clip0_1_4243">
<rect width="42" height="42" fill="white"/>
</clipPath>
</defs>
</svg>
