<svg width="19" height="13" viewBox="0 0 19 13" fill="none" xmlns="http://www.w3.org/2000/svg">
<path d="M5.85961 1.375H18.0418M5.85961 6.625H18.0418M5.85961 11.875H18.0418M1.29131 1.375H1.29841V1.383H1.29131V1.375ZM1.672 1.375C1.672 1.47446 1.63189 1.56984 1.5605 1.64016C1.4891 1.71049 1.39227 1.75 1.29131 1.75C1.19034 1.75 1.09351 1.71049 1.02212 1.64016C0.950722 1.56984 0.910614 1.47446 0.910614 1.375C0.910614 1.27554 0.950722 1.18016 1.02212 1.10984C1.09351 1.03951 1.19034 1 1.29131 1C1.39227 1 1.4891 1.03951 1.5605 1.10984C1.63189 1.18016 1.672 1.27554 1.672 1.375ZM1.29131 6.625H1.29841V6.633H1.29131V6.625ZM1.672 6.625C1.672 6.72446 1.63189 6.81984 1.5605 6.89017C1.4891 6.96049 1.39227 7 1.29131 7C1.19034 7 1.09351 6.96049 1.02212 6.89017C0.950722 6.81984 0.910614 6.72446 0.910614 6.625C0.910614 6.52554 0.950722 6.43016 1.02212 6.35983C1.09351 6.28951 1.19034 6.25 1.29131 6.25C1.39227 6.25 1.4891 6.28951 1.5605 6.35983C1.63189 6.43016 1.672 6.52554 1.672 6.625V6.625ZM1.29131 11.875H1.29841V11.883H1.29131V11.875ZM1.672 11.875C1.672 11.9745 1.63189 12.0698 1.5605 12.1402C1.4891 12.2105 1.39227 12.25 1.29131 12.25C1.19034 12.25 1.09351 12.2105 1.02212 12.1402C0.950722 12.0698 0.910614 11.9745 0.910614 11.875C0.910614 11.7755 0.950722 11.6802 1.02212 11.6098C1.09351 11.5395 1.19034 11.5 1.29131 11.5C1.39227 11.5 1.4891 11.5395 1.5605 11.6098C1.63189 11.6802 1.672 11.7755 1.672 11.875Z" stroke="white" stroke-width="1.5" stroke-linecap="round" stroke-linejoin="round"/>
</svg>
