<svg width="18" height="18" viewBox="0 0 18 18" fill="none" xmlns="http://www.w3.org/2000/svg">
<g clip-path="url(#clip0_401_75)">
<rect width="18" height="18" rx="2" fill="#0E0E0E"/>
<path d="M13.7255 4.28272C13.433 3.99022 12.9605 3.99022 12.668 4.28272L9.00053 7.94272L5.33303 4.27522C5.04053 3.98272 4.56803 3.98272 4.27553 4.27522C3.98303 4.56772 3.98303 5.04022 4.27553 5.33272L7.94303 9.00022L4.27553 12.6677C3.98303 12.9602 3.98303 13.4327 4.27553 13.7252C4.56803 14.0177 5.04053 14.0177 5.33303 13.7252L9.00053 10.0577L12.668 13.7252C12.9605 14.0177 13.433 14.0177 13.7255 13.7252C14.018 13.4327 14.018 12.9602 13.7255 12.6677L10.058 9.00022L13.7255 5.33272C14.0105 5.04772 14.0105 4.56772 13.7255 4.28272Z" fill="white"/>
</g>
<rect x="0.5" y="0.5" width="17" height="17" rx="1.5" stroke="#FFFCFC" stroke-opacity="0.06"/>
<defs>
<clipPath id="clip0_401_75">
<rect width="18" height="18" rx="2" fill="white"/>
</clipPath>
</defs>
</svg>
