<svg width="42" height="42" viewBox="0 0 42 42" fill="none" xmlns="http://www.w3.org/2000/svg">
<g clip-path="url(#clip0_1_4269)">
<path d="M42 11.025C42 12.075 41.5406 13.0922 40.7531 13.8469L35.6016 18.6375C34.3875 16.7344 32.1562 15.4875 29.6297 15.4875C25.7578 15.4875 22.6406 18.4078 22.6406 22.0172C22.6406 24.3797 24.0188 26.4469 26.0203 27.5953L19.7203 33.4687C19.425 33.7641 18.9656 33.8297 18.5719 33.6984L14.9297 32.3203L6.98906 39.7031C6.39844 40.2609 5.57812 40.5891 4.725 40.5891C3.87187 40.5891 3.05156 40.2937 2.46094 39.7031L0.951563 38.2922C0.328125 37.7344 0 36.9797 0 36.1594C0 35.3719 0.328125 34.6172 0.951563 34.0266L8.85938 26.6766L7.38281 23.2641C7.21875 22.9031 7.31719 22.4766 7.6125 22.1812L28.6453 2.55937C30.2531 1.04999 33.075 1.04999 34.6828 2.55937L40.7531 8.20312C41.5406 8.95781 42 9.94218 42 11.025ZM29.6297 17.4891C26.9719 17.4891 24.7734 19.5234 24.7734 22.0172C24.7734 24.5109 26.9391 26.5453 29.6297 26.5453C32.2875 26.5453 34.4859 24.5109 34.4859 22.0172C34.4531 19.5234 32.2875 17.4891 29.6297 17.4891Z" fill="white"/>
</g>
<defs>
<clipPath id="clip0_1_4269">
<rect width="42" height="42" fill="white"/>
</clipPath>
</defs>
</svg>
