<svg width="42" height="42" viewBox="0 0 42 42" fill="none" xmlns="http://www.w3.org/2000/svg">
<path d="M34.6889 5.82739L10.8185 29.7674C10.661 29.942 10.4681 30.1178 10.2581 30.2753C9.99556 29.6624 9.52306 28.3499 9.17262 26.0583C9.06762 25.3587 8.78806 23.5028 7.44012 23.2758C6.19718 23.0658 5.39262 24.4308 5.18262 24.8508L5.07762 25.0437L5.06056 25.2708C4.781 29.8383 5.4635 32.3228 7.23012 33.0933C7.58056 33.2508 7.94806 33.3203 8.29718 33.3203C10.2042 33.3203 12.0601 31.4474 12.2872 31.2033L36.1222 7.28033L34.6876 5.82739H34.6889ZM8.05437 31.2203C7.84437 31.1324 6.86393 30.4683 7.07393 25.9533C7.091 26.0753 7.12643 26.2158 7.1435 26.3903C7.54643 29.0153 8.0885 30.5208 8.43893 31.2728C8.2985 31.2728 8.15937 31.2558 8.05437 31.2203ZM11.7819 22.9595C13.0944 22.9595 14.1798 21.8924 14.1798 20.5615C14.1798 19.2306 13.1127 18.1636 11.7819 18.1636C10.451 18.1636 9.38393 19.249 9.38393 20.5615C9.38393 21.874 10.4694 22.9595 11.7819 22.9595ZM11.7819 20.2124C11.9748 20.2124 12.1323 20.3699 12.1323 20.5628C12.1323 20.9474 11.4327 20.9474 11.4327 20.5628C11.4327 20.3699 11.5902 20.2124 11.7832 20.2124H11.7819Z" fill="white"/>
</svg>
