<svg width="28" height="21" viewBox="0 0 28 21" fill="none" xmlns="http://www.w3.org/2000/svg">
<g clip-path="url(#clip0_350_120)">
<rect width="28" height="21" rx="3" fill="#1A47B8"/>
<path fill-rule="evenodd" clip-rule="evenodd" d="M2.97863 0H0V3.5L25.0052 21H28V17.5L2.97863 0Z" fill="white"/>
<path d="M0.993465 0L28 18.9496V21H27.0298L0 2.03078V0H0.993465Z" fill="#F93939"/>
<path fill-rule="evenodd" clip-rule="evenodd" d="M25.3334 0H28.0001V3.5C28.0001 3.5 10.6798 15.1593 2.66673 21H6.10352e-05V17.5L25.3334 0Z" fill="white"/>
<path d="M28 0H27.0957L0 18.9659V21H0.993465L28 2.04612V0Z" fill="#F93939"/>
<path fill-rule="evenodd" clip-rule="evenodd" d="M10.1828 0H17.8405V6.47754H28V14.5182H17.8405V21H10.1828V14.5182H0V6.47754H10.1828V0Z" fill="white"/>
<path fill-rule="evenodd" clip-rule="evenodd" d="M11.7895 0H16.2105V8.07692H28V12.9231H16.2105V21H11.7895V12.9231H0V8.07692H11.7895V0Z" fill="#F93939"/>
</g>
<defs>
<clipPath id="clip0_350_120">
<rect width="28" height="21" rx="3" fill="white"/>
</clipPath>
</defs>
</svg>
