<svg width="42" height="42" viewBox="0 0 42 42" fill="none" xmlns="http://www.w3.org/2000/svg">
<path d="M21.5 0C10.1941 0 1 9.19415 1 20.5C1 31.8059 10.1941 41 21.5 41C32.8059 41 42 31.8059 42 20.5C42 9.19415 32.8059 0 21.5 0ZM37.3829 29.339C37.1861 29.2606 36.9878 29.2206 36.7718 29.2606L29.8654 30.5036L27.5377 27.0704L30.3197 18.5067L34.3449 17.2444L39.2386 21.8022C39.357 21.9014 39.4947 21.9798 39.6338 22.039C39.3778 24.6835 38.6082 27.1488 37.3844 29.339H37.3829ZM12.6211 30.5036L5.95149 29.8717H5.93225C4.6892 27.8 3.84126 25.4722 3.4861 22.9861C3.60449 22.9269 3.72288 22.8485 3.80131 22.7493L8.55598 17.5404L12.1475 18.6458L14.8704 27.0512L12.6211 30.5036ZM6.97849 15.8637L3.34848 19.8489C3.46687 16.574 4.45391 13.5345 6.07136 10.93L6.97849 15.8622V15.8637ZM17.0013 26.0834L14.3968 18.0923L21.204 13.1394L28.0112 18.0923L25.4067 26.0834H17.0013ZM35.8247 15.5086L36.3767 10.082C38.1924 12.6673 39.3363 15.7246 39.613 19.0394L35.8247 15.5071V15.5086ZM34.4041 7.69508C34.3449 7.81347 34.2857 7.95109 34.2664 8.0902L33.5369 15.0942L29.5517 16.3373L22.3494 11.109L22.3687 7.30145L28.3072 4.32257C28.5247 4.20418 28.6816 4.0266 28.7807 3.82978C30.8924 4.77687 32.8059 6.07912 34.4041 7.69656V7.69508ZM26.0179 2.90045L21.204 5.30813L16.5677 3.01884C18.1467 2.58525 19.7834 2.32776 21.5 2.32776C23.0583 2.30853 24.578 2.52458 26.0179 2.90045ZM13.6466 4.12279C13.6658 4.14203 13.6865 4.16274 13.7058 4.18198L20.0587 7.31921L20.0394 11.1268L12.7779 16.4142L9.22634 15.3088L8.02324 8.7576C8.00401 8.63921 7.94481 8.56078 7.90486 8.46163C9.50307 6.64589 11.4564 5.16607 13.6466 4.12131V4.12279ZM7.72728 32.3578L12.5027 32.8121L15.4816 37.6467C12.4435 36.5812 9.77979 34.727 7.72728 32.3593V32.3578ZM18.4027 38.3955C18.422 38.178 18.3835 37.9412 18.2444 37.7252L14.5552 31.7467L16.7646 28.3727H25.6036L27.952 31.8251L24.9332 37.8036C24.8548 37.9812 24.8148 38.1587 24.8148 38.3363C23.7301 38.5331 22.6054 38.6515 21.4808 38.6515C20.4345 38.6915 19.409 38.5731 18.4027 38.3955ZM27.6561 37.5875L30.0637 32.8121L35.727 31.7866C33.6553 34.4103 30.8732 36.4229 27.6575 37.5875H27.6561Z" fill="white"/>
</svg>
