<svg width="42" height="42" viewBox="0 0 42 42" fill="none" xmlns="http://www.w3.org/2000/svg">
<path d="M4.77723 13.7196V16.8525C4.77723 18.6546 7.61223 19.4605 10.4118 19.4605C13.2297 19.4605 16.0647 18.6559 16.0647 16.7475V13.44H16.0122C15.7497 11.323 11.3227 11.1996 10.3947 11.1996C9.48517 11.1996 5.0568 11.3216 4.7943 13.4216H4.77723V13.5266C4.77723 13.5621 4.76017 13.5962 4.76017 13.6146C4.76017 13.65 4.77723 13.6841 4.77723 13.7196ZM14.0172 16.6596C13.6852 16.9391 12.3897 17.3946 10.4118 17.3946C8.45223 17.3946 7.1568 16.9391 6.82473 16.6766V15.5912C8.2068 16.0112 9.8868 16.0466 10.3947 16.0466C10.9197 16.0466 12.6168 16.0112 14.0172 15.5741V16.6596ZM10.3947 13.2471C11.7427 13.2471 12.7572 13.4216 13.3872 13.6146C12.7743 13.8246 11.7427 13.9991 10.3947 13.9991C9.0468 13.9991 8.03223 13.8246 7.40223 13.6316C8.03223 13.4387 9.06517 13.2471 10.3947 13.2471ZM35.9452 4.97046L28.3156 25.9875L14.5606 23.6421L5.72355 23.6775C4.62105 23.6775 3.58811 24.238 2.97648 25.1646C2.36486 26.0912 2.25855 27.2475 2.69692 28.2621L5.30486 34.3521C5.93486 35.8221 7.3878 36.7671 8.97986 36.7671L27.4953 36.75C28.9482 36.75 30.2082 35.8221 30.6282 34.44L31.2937 32.323L40.6032 6.6859L35.9478 4.97046H35.9452ZM29.3643 31.6746L28.6818 33.8271C28.5243 34.3521 28.0347 34.7025 27.4914 34.7025L8.9943 34.738C8.2068 34.738 7.50723 34.2655 7.19223 33.5475L4.5843 27.4575C4.40973 27.073 4.46223 26.6346 4.6893 26.2855C4.91636 25.9363 5.30223 25.725 5.72223 25.725L14.3847 25.6896L29.6622 28.2975L37.1697 7.59546L37.9927 7.8934L29.3656 31.6759L29.3643 31.6746Z" fill="white"/>
</svg>
