<svg width="42" height="42" viewBox="0 0 42 42" fill="none" xmlns="http://www.w3.org/2000/svg">
<path d="M38.8666 37.4496L34.9462 33.5292C39.0241 28.9617 35.5066 24.9717 33.7557 22.9937L33.5628 22.7837C31.9524 20.9633 30.6753 18.3908 30.4299 17.8842C28.2078 8.38168 25.6878 3.48212 22.7649 2.92168C21.2594 2.64212 20.1228 3.56874 19.6319 4.21712L11.7924 11.9346L4.14443 19.6876C3.49737 20.1771 2.56943 21.3321 2.84899 22.8205C3.40943 25.7434 8.29193 28.2451 17.8115 30.4855C18.3194 30.7309 20.8919 32.0251 22.7111 33.6184L22.9211 33.793C23.5865 34.3705 24.4606 35.158 25.5106 35.788L25.5277 35.8051C26.5606 36.418 27.7681 36.9076 29.0622 36.9076C30.4272 36.9076 31.8972 36.3996 33.4552 35.0005L37.3756 38.9209L38.8627 37.4509L38.8666 37.4496ZM30.9746 29.5746L33.4591 27.0901L34.5971 28.228L34.6496 28.1755C34.9646 29.4001 34.7021 30.6601 33.4946 32.0959L30.9746 29.5759V29.5746ZM14.1746 21.4726L17.045 18.6021L20.2475 21.8046L17.3771 24.6751L14.1746 21.4726ZM15.89 26.1621L14.525 27.5271C12.5471 26.9667 10.9721 26.4246 9.73043 25.9167L12.6875 22.9596L15.89 26.1621ZM21.0166 14.6305L24.2191 17.833L21.7346 20.3176L18.5321 17.1151L21.0166 14.6305ZM17.0621 15.6451L14.0341 12.6171L16.5371 10.1496L19.5466 13.1592L17.0621 15.6437V15.6451ZM28.4546 18.463L28.5241 18.6559C28.5412 18.7084 28.7696 19.1639 29.1187 19.8109L27.1237 17.8159L28.0687 16.8709C28.1907 17.3959 28.3312 17.9039 28.4532 18.463H28.4546ZM28.4716 22.0855L25.9871 24.5701L23.1875 21.7705L25.6721 19.2859L28.4716 22.0855ZM25.6721 16.3801L22.4696 13.1776L25.8466 9.80049C26.3546 11.0605 26.8966 12.6184 27.4571 14.5951L25.6721 16.3801ZM21.6991 23.2405L24.4987 26.0401L21.6282 28.9105L18.8287 26.1109L21.6991 23.2405ZM23.0825 30.3621L25.9529 27.4917L28.0529 29.5917L25.1825 32.4621L23.0825 30.3621ZM27.44 26.023L29.9246 23.5384L32.0246 25.6384L29.54 28.123L27.44 26.023ZM21.1216 5.61755L21.2437 5.47712C21.2437 5.47712 21.6466 4.93505 22.2057 4.93505C22.2582 4.93505 22.3107 4.93505 22.3632 4.95212C22.7662 5.02168 23.7807 5.51255 25.0762 8.11918L24.8491 7.85668L20.9996 11.7062L18.0071 8.71374L21.1216 5.61624V5.61755ZM12.5471 14.0871L15.575 17.1151L12.7046 19.9855L9.69499 16.9759L12.5471 14.0884V14.0871ZM4.88206 22.453C4.74162 21.8059 5.38999 21.3151 5.40706 21.3151L8.18956 18.4971L11.1991 21.5067L7.69868 25.0071C5.42412 23.7826 4.95162 22.8376 4.88074 22.4517L4.88206 22.453ZM16.8166 28.1401L17.3246 27.6321L18.1816 28.4892C17.7091 28.3487 17.2537 28.2437 16.8166 28.1387V28.1401ZM27.0016 34.2826L26.6341 33.9151L29.5046 31.0446L32.0246 33.5646C30.17 35.1567 28.5596 35.1042 27.0016 34.2826Z" fill="white"/>
</svg>
