<svg width="13" height="16" viewBox="0 0 13 16" fill="none" xmlns="http://www.w3.org/2000/svg">
<path fill-rule="evenodd" clip-rule="evenodd" d="M10.4524 4.5431C10.4524 2.03398 8.52542 0 6.14846 0C3.77149 0 1.84451 2.03391 1.84451 4.5431V8.43708H3.07427V4.5431C3.07427 2.75093 4.45056 1.29802 6.14839 1.29802C7.84622 1.29802 9.22251 2.75093 9.22251 4.5431V8.43708H10.4523L10.4524 4.5431Z" fill="#858585"/>
<path fill-rule="evenodd" clip-rule="evenodd" d="M0 7.79179V14.2742C0 14.9932 0.552362 15.576 1.22409 15.576H11.0727C11.7487 15.576 12.2968 14.9937 12.2968 14.2742V7.79179C12.2968 7.07279 11.7445 6.49005 11.0727 6.49005H1.22409C0.548113 6.49005 0 7.07213 0 7.79179Z" fill="#858585"/>
</svg>
