<svg width="42" height="42" viewBox="0 0 42 42" fill="none" xmlns="http://www.w3.org/2000/svg">
<g clip-path="url(#clip0_1_4257)">
<path d="M38.85 8.36709C38.9813 8.36709 39.0797 8.36709 39.2109 8.36709C40.8516 8.36709 42.1641 9.67959 42.1641 11.3202C42.1641 16.4062 42.1641 23.1983 42.1641 27.989C42.1641 28.5796 42.1641 29.203 42.1641 29.7937C42.1641 32.714 42.1641 35.2077 42.1641 38.0296C42.1641 39.6702 40.8187 40.9827 39.2109 40.9827C33.1078 40.9827 27.9891 40.9827 21.8859 40.9827C20.2453 40.9827 18.9328 39.6374 18.9328 38.0296V36.4218C18.9328 34.7812 20.2781 33.4687 21.8859 33.4687H36.2906C37.6688 33.4687 38.9813 32.1233 38.9813 30.2858C38.9813 23.6577 38.85 14.9952 38.85 8.36709ZM1.93594 4.92178H9.28594V4.69209C9.28594 3.70772 10.0734 2.92021 11.0578 2.92021H18.2109V2.78896C18.2109 1.80459 18.9984 1.01709 19.9828 1.01709H26.9062C27.8906 1.01709 28.6781 1.80459 28.6781 2.78896V2.92021H35.2078C36.5203 2.92021 37.6031 4.00303 37.6031 5.31553V29.0718C37.6031 30.3843 36.5203 31.4671 35.175 31.4671C33.9281 31.4671 32.8781 31.4671 31.5984 31.4671C30.2859 31.4671 29.1703 30.3843 29.1703 29.0718V10.6312C28.4813 10.664 27.3656 10.9593 27.3984 12.0749C27.3984 16.3733 27.3984 24.4452 27.3984 29.1046C27.3984 30.4171 26.3156 31.4999 24.9703 31.4999C23.6906 31.4999 22.5094 31.4999 21.2297 31.4999C19.9172 31.4999 18.8016 30.4171 18.8016 29.1046V10.9593C18.1125 10.9921 17.1938 11.2874 17.2266 12.403C17.2266 16.7015 17.2266 24.478 17.2266 29.1046C17.2266 30.4171 16.1437 31.4999 14.7984 31.4999C13.6172 31.4999 12.7641 31.4999 11.5828 31.4999C10.2703 31.4999 9.15469 30.4171 9.15469 29.1046V13.9452C8.46562 13.978 7.57969 14.2733 7.64531 15.389V29.1046C7.64531 30.4171 6.5625 31.4999 5.21719 31.4999C4.13438 31.4999 3.54375 31.4999 2.42813 31.4999C1.11563 31.4999 0 30.4171 0 29.1046C0 22.1483 0 13.5843 0 6.72646C0.164062 5.70928 0.951563 4.92178 1.93594 4.92178Z" fill="white"/>
</g>
<defs>
<clipPath id="clip0_1_4257">
<rect width="42" height="42" fill="white"/>
</clipPath>
</defs>
</svg>
