<svg width="25" height="25" viewBox="0 0 25 25" fill="none" xmlns="http://www.w3.org/2000/svg">
<g clip-path="url(#clip0_350_145)">
<path d="M21.6863 0.0213308C21.5094 -0.020749 21.3232 0.0019632 21.1616 0.0853506L20.0125 0.659193L18.8536 0.0797431C18.7498 0.0278399 18.6353 0.000818423 18.5192 0.000818423C18.4032 0.000818423 18.2887 0.0278399 18.1849 0.0797431L17.0115 0.65966L15.8535 0.0797431C15.7494 0.0274604 15.6345 0.000233106 15.518 0.000233106C15.4015 0.000233106 15.2866 0.0274604 15.1825 0.0797431L14.0311 0.657791L12.8885 0.0811449C12.7847 0.0285027 12.67 0.000836368 12.5536 0.000349599C12.4371 -0.000137171 12.3222 0.026569 12.2179 0.0783411L11.0403 0.660127L9.88145 0.0792757C9.77746 0.0273973 9.66284 0.000392916 9.54663 0.000392916C9.43042 0.000392916 9.3158 0.0273973 9.21181 0.0792757L8.04964 0.659193L6.88887 0.0792757C6.73923 0.00426408 6.56874 -0.0183625 6.40472 0.0150193C6.24069 0.0484011 6.09261 0.13586 5.98418 0.263391C5.86732 0.402674 5.80431 0.579264 5.80661 0.761064V11.9631L5.80895 11.9655H14.7787C15.1753 11.9655 15.5557 12.123 15.8361 12.4035C16.1165 12.6839 16.2741 13.0642 16.2741 13.4608V18.3184C16.2741 19.7637 17.8194 20.9353 19.2648 20.9353H19.8256C20.47 20.9353 21.0881 20.6793 21.5438 20.2235C21.9995 19.7678 22.2555 19.1498 22.2555 18.5053V0.74798C22.2556 0.580635 22.1996 0.418083 22.0964 0.286341C21.9932 0.1546 21.8488 0.0612843 21.6863 0.0213308ZM18.5171 9.72011H12.5591C12.1553 9.72011 11.8067 9.40982 11.789 9.00607C11.7844 8.90517 11.8004 8.8044 11.8358 8.70983C11.8713 8.61526 11.9256 8.52886 11.9954 8.45584C12.0652 8.38282 12.149 8.3247 12.2419 8.28498C12.3347 8.24526 12.4347 8.22478 12.5357 8.22475H18.4938C18.8975 8.22475 19.2461 8.53504 19.2639 8.93878C19.2684 9.03969 19.2525 9.14046 19.217 9.23503C19.1815 9.3296 19.1272 9.416 19.0575 9.48902C18.9877 9.56204 18.9038 9.62016 18.8109 9.65988C18.7181 9.69959 18.6181 9.72008 18.5171 9.72011ZM18.5171 5.98172H9.56836C9.16461 5.98172 8.81601 5.67143 8.79825 5.26769C8.79371 5.16679 8.80965 5.06601 8.84513 4.97144C8.8806 4.87687 8.93487 4.79047 9.00466 4.71745C9.07445 4.64443 9.1583 4.58631 9.25117 4.54659C9.34404 4.50688 9.44399 4.48639 9.545 4.48637H18.4938C18.8975 4.48637 19.2461 4.79665 19.2639 5.2004C19.2684 5.3013 19.2525 5.40208 19.217 5.49664C19.1815 5.59121 19.1272 5.67762 19.0575 5.75063C18.9877 5.82365 18.9038 5.88177 18.8109 5.92149C18.7181 5.96121 18.6181 5.9817 18.5171 5.98172Z" fill="#F9F9F9"/>
<path d="M14.7791 18.3176V14.2054C14.7791 14.0071 14.7004 13.8169 14.5601 13.6767C14.4199 13.5365 14.2298 13.4577 14.0315 13.4577H1.32095C0.924329 13.4589 0.544343 13.6172 0.26411 13.8979C-0.0161228 14.1785 -0.173792 14.5588 -0.174408 14.9554C-0.174408 17.3176 0.0956903 18.2998 0.501305 19.0475C1.18964 20.3172 2.43592 20.9345 4.31166 20.9345H15.7922C15.8291 20.9345 15.8652 20.9236 15.8959 20.9032C15.9266 20.8828 15.9506 20.8537 15.9648 20.8197C15.9791 20.7857 15.9829 20.7482 15.9759 20.712C15.9689 20.6758 15.9513 20.6425 15.9254 20.6162C15.4834 20.1728 14.7791 19.5793 14.7791 18.3176Z" fill="#F9F9F9"/>
<path d="M21.0551 19.9451L20.9085 19.7979H20.7801C21.4163 18.7786 21.7076 17.5239 21.487 16.2075L21.4869 16.2067C21.1141 14.0029 19.2802 12.2487 17.0587 11.9789C13.713 11.5681 10.894 14.3846 11.305 17.7292C11.5748 19.9501 13.3304 21.7829 15.5352 22.1554L15.5359 22.1556C16.8531 22.376 18.1086 22.0848 19.1286 21.4488V21.5767L19.2751 21.7232L22.3131 24.7594C22.8014 25.2474 23.5968 25.2474 24.0851 24.7594C24.5735 24.2713 24.5736 23.4762 24.0855 22.988C24.0853 22.9878 24.0852 22.9877 24.0851 22.9876L21.0551 19.9451ZM16.4119 19.7979C14.9079 19.7979 13.6952 18.5855 13.6952 17.0831C13.6952 15.5807 14.9079 14.3683 16.4119 14.3683C17.9159 14.3683 19.1286 15.5807 19.1286 17.0831C19.1286 18.5855 17.9159 19.7979 16.4119 19.7979Z" fill="white" stroke="#151515"/>
</g>
<defs>
<clipPath id="clip0_350_145">
<rect width="25" height="25" fill="white"/>
</clipPath>
</defs>
</svg>
