<svg width="15" height="17" viewBox="0 0 15 17" fill="none" xmlns="http://www.w3.org/2000/svg">
<path d="M9.66917 6.12492L9.39525 13.2499M5.60475 13.2499L5.33083 6.12492M13.2222 3.58367C13.4929 3.62484 13.7621 3.66838 14.0313 3.71509M13.2222 3.58447L12.3767 14.5744C12.3422 15.0219 12.14 15.4398 11.8106 15.7447C11.4813 16.0495 11.049 16.2188 10.6002 16.2187H4.39983C3.95103 16.2188 3.51873 16.0495 3.18936 15.7447C2.85999 15.4398 2.65784 15.0219 2.62333 14.5744L1.77783 3.58367M13.2222 3.58367C12.3085 3.44554 11.3901 3.34071 10.4688 3.26938M0.96875 3.7143C1.23792 3.66759 1.50708 3.62405 1.77783 3.58367M1.77783 3.58367C2.69152 3.44554 3.60994 3.34071 4.53125 3.26938M10.4688 3.26938V2.54422C10.4688 1.61005 9.74833 0.831049 8.81417 0.801758C7.93828 0.773763 7.06172 0.773763 6.18583 0.801758C5.25167 0.831049 4.53125 1.61084 4.53125 2.54422V3.26938M10.4688 3.26938C8.49253 3.11665 6.50747 3.11665 4.53125 3.26938" stroke="white" stroke-width="1.5" stroke-linecap="round" stroke-linejoin="round"/>
</svg>
