<svg width="18" height="18" viewBox="0 0 18 18" fill="none" xmlns="http://www.w3.org/2000/svg">
<path d="M13.082 11.5356H12.271L11.9836 11.2586C13.2154 9.82232 13.8518 7.86285 13.5028 5.78026C13.0204 2.92825 10.6389 0.650744 7.76466 0.301937C3.42254 -0.231533 -0.231816 3.42068 0.301967 7.76026C0.650979 10.6328 2.92982 13.0129 5.78351 13.4951C7.86732 13.8439 9.82794 13.2078 11.265 11.9767L11.5422 12.264V13.0744L15.9049 17.4345C16.3257 17.8552 17.0135 17.8552 17.4343 17.4345C17.8552 17.0139 17.8552 16.3266 17.4343 15.9059L13.082 11.5356ZM6.92293 11.5356C4.36693 11.5356 2.30365 9.47352 2.30365 6.91902C2.30365 4.36452 4.36693 2.30245 6.92293 2.30245C9.47893 2.30245 11.5422 4.36452 11.5422 6.91902C11.5422 9.47352 9.47893 11.5356 6.92293 11.5356Z" fill="white"/>
</svg>
