<svg width="22" height="20" viewBox="0 0 22 20" fill="none" xmlns="http://www.w3.org/2000/svg">
<path d="M8.97959 17.8929C8.97959 18.2991 9.16199 19.2857 8.53061 19.2857H4.04082C1.80995 19.2857 0 17.4141 0 15.1072V4.89287C0 2.58595 1.80995 0.714294 4.04082 0.714294H8.53061C8.76913 0.714294 8.97959 0.931928 8.97959 1.17858C8.97959 1.58483 9.16199 2.57144 8.53061 2.57144H4.04082C2.80612 2.57144 1.79592 3.61608 1.79592 4.89287V15.1072C1.79592 16.3839 2.80612 17.4286 4.04082 17.4286H8.08163C8.4324 17.4286 8.97959 17.356 8.97959 17.8929ZM22 10C22 10.2467 21.9018 10.4788 21.7334 10.6529L14.1008 18.5458C13.9324 18.7199 13.7079 18.8214 13.4694 18.8214C12.9783 18.8214 12.5714 18.4007 12.5714 17.8929V13.7143H6.28571C5.79464 13.7143 5.38775 13.2935 5.38775 12.7857V7.21429C5.38775 6.70648 5.79464 6.28572 6.28571 6.28572H12.5714V2.10715C12.5714 1.59934 12.9783 1.17858 13.4694 1.17858C13.7079 1.17858 13.9324 1.28014 14.1008 1.45425L21.7334 9.34711C21.9018 9.52121 22 9.75336 22 10Z" fill="white"/>
</svg>
