<svg width="42" height="42" viewBox="0 0 42 42" fill="none" xmlns="http://www.w3.org/2000/svg">
<g clip-path="url(#clip0_1_4259)">
<path d="M41.7047 2.55926L39.6375 0.52489C39.2437 0.13114 38.6203 0.13114 38.1937 0.492077L35.4375 3.05145C35.2406 3.24833 35.1094 3.51083 35.1094 3.77333C35.1094 4.03583 35.2078 4.29833 35.4047 4.4952L37.6031 6.66083C37.8 6.8577 38.0625 6.95614 38.325 6.95614C38.5875 6.95614 38.8828 6.82489 39.0469 6.62802L41.6391 3.90458C42.0984 3.57645 42.0984 2.9202 41.7047 2.55926V2.55926ZM36.2578 8.23583L33.8953 5.90614C33.5016 5.51239 32.8781 5.51239 32.4516 5.87333L1.21406 35.1749C0.459375 35.8968 0.0328125 36.8483 0 37.8983C0 38.9483 0.39375 39.9327 1.11563 40.6546C1.8375 41.3765 2.82187 41.7702 3.83906 41.7702C4.88906 41.7702 5.90625 41.3436 6.62812 40.589L36.225 9.64676C36.6516 9.25301 36.6516 8.62958 36.2578 8.23583V8.23583ZM37.8984 25.5608H27.6609C25.9547 25.5608 24.5766 26.9389 24.5766 28.6124V38.7514C24.5766 40.4249 25.9547 41.803 27.6609 41.803H37.8984C39.6047 41.803 40.9828 40.4249 40.9828 38.7514V28.6124C40.9828 26.9389 39.6047 25.5608 37.8984 25.5608V25.5608ZM32.7797 37.7671C30.4828 37.7671 28.6453 35.9624 28.6453 33.6983C28.6453 31.4671 30.4828 29.6296 32.7797 29.6296C35.0766 29.6296 36.9141 31.4343 36.9141 33.6983C36.9141 35.9296 35.0437 37.7671 32.7797 37.7671Z" fill="white"/>
</g>
<defs>
<clipPath id="clip0_1_4259">
<rect width="42" height="42" fill="white"/>
</clipPath>
</defs>
</svg>
