<svg width="42" height="42" viewBox="0 0 42 42" fill="none" xmlns="http://www.w3.org/2000/svg">
<g clip-path="url(#clip0_1_4267)">
<path d="M-0.000183105 21C-0.000183105 32.5828 9.28575 42 20.7373 42C22.2467 42 23.7233 41.8359 25.167 41.5078C23.9858 39.5719 20.6717 35.0438 14.3389 32.3531C14.0108 32.2219 6.5295 28.6453 4.88888 21.9844C4.00294 18.375 5.02013 14.6344 7.90763 10.8938L7.842 10.9922C7.97325 10.7953 11.2545 5.84063 16.7014 5.31563C20.3108 4.9875 23.8873 6.62812 27.3326 10.2703L27.4311 10.3688L27.5295 10.5C29.5639 13.65 35.8639 21.5578 41.442 21.7219C41.442 21.4922 41.4748 21.2297 41.4748 21C41.4748 9.41719 32.1889 0 20.7373 0C9.28575 0 -0.000183105 9.41719 -0.000183105 21ZM24.9373 12.4359C22.2467 9.61406 19.5561 8.30156 17.0295 8.53125C13.1248 8.89219 10.5654 12.7313 10.5326 12.7641L10.4998 12.8297L10.467 12.8625C8.23575 15.7828 7.41544 18.6047 8.03888 21.1969C9.28575 26.3156 15.6514 29.3672 15.6514 29.4C23.592 32.7469 27.3654 38.7516 28.317 40.5234C34.8467 37.9313 39.7686 32.0578 41.1139 24.9047C33.1733 24.4781 25.9217 13.8797 24.9373 12.4359Z" fill="white"/>
</g>
<defs>
<clipPath id="clip0_1_4267">
<rect width="42" height="42" fill="white"/>
</clipPath>
</defs>
</svg>
