<svg width="42" height="42" viewBox="0 0 42 42" fill="none" xmlns="http://www.w3.org/2000/svg">
<path d="M41.9672 29.4983L40.8844 28.9077L40.8516 28.8749L40.9828 18.7687C40.9828 18.3093 40.8516 17.8171 40.5891 17.4233L34.4203 8.20303C33.9938 7.57959 33.3047 7.21865 32.5828 7.18584C31.8281 7.15303 31.1391 7.48115 30.6797 8.07178L22.7719 18.0468H22.7391L21.5578 18.0796H21.525L16.5375 12.1733C15.8156 11.3202 14.5688 11.0905 13.5844 11.6483L4.85625 16.6687C4.85625 16.6687 4.82344 16.6687 4.82344 16.7015C4.79063 16.7343 4.725 16.7671 4.69219 16.7999C4.65938 16.7999 4.65938 16.8327 4.62656 16.8327C4.59375 16.8655 4.56094 16.8983 4.49531 16.9312L4.4625 16.964C4.42969 16.9968 4.36406 17.0624 4.33125 17.0952C4.29844 17.128 4.29844 17.128 4.26562 17.1608C4.23281 17.1937 4.23281 17.2265 4.2 17.2593C4.16719 17.2921 4.16719 17.2921 4.13438 17.3249C4.10156 17.3577 4.06875 17.4233 4.06875 17.4562C4.06875 17.489 4.03594 17.489 4.03594 17.5218C4.00313 17.5874 3.97031 17.6202 3.9375 17.6858C3.9375 17.6858 3.9375 17.7187 3.90469 17.7187C3.87187 17.7515 3.87188 17.8171 3.83906 17.8499C3.83906 17.8827 3.83906 17.8827 3.80625 17.9155C3.80625 17.9483 3.77344 17.9812 3.77344 18.0468C3.77344 18.0796 3.74062 18.1124 3.74062 18.1452C3.74062 18.2108 3.70781 18.2437 3.70781 18.3093C3.70781 18.3421 3.70781 18.3421 3.70781 18.3749C3.70781 18.4405 3.675 18.5062 3.675 18.5718C3.675 18.6046 3.675 18.6046 3.675 18.6374C3.675 18.6702 3.675 18.703 3.675 18.7358V29.4327C3.675 29.4655 3.675 29.4655 3.64219 29.4655L0.0328125 31.139L0 31.1718V35.2733C0 35.2733 0 35.2733 0 35.3062C0.0984375 35.4702 0.164062 35.6671 0.164062 35.864C0.164062 35.9952 0.164062 36.0937 0.164062 36.1921C0.164062 36.1921 0.164062 36.1921 0.196875 36.2249L6.95625 33.0749C7.77656 32.6812 8.30156 31.8608 8.30156 30.9421V25.3312C8.30156 25.2983 8.36719 25.2655 8.36719 25.2983L20.0156 39.3421C20.1469 39.3421 22.8703 39.3093 23.7891 39.3093C23.7891 39.3093 23.8219 39.3093 23.8219 39.2765C24.4125 38.4562 24.3797 37.2749 23.7234 36.4546L9.58125 19.3593C9.54844 19.3265 9.58125 19.2937 9.58125 19.2937L14.175 16.6687C14.2078 16.6687 14.2078 16.6687 14.2406 16.6687L18.7031 21.9843C19.1625 22.5093 19.7859 22.8046 20.475 22.8046C20.5078 22.8046 20.5406 22.8046 20.5734 22.8046L21.4922 22.7718H21.525C21.5906 22.8702 21.6891 22.9358 21.7875 23.0343C22.8047 23.8218 24.2484 23.6577 25.0688 22.6405L25.1016 22.6077L26.1187 22.5749C27.3656 22.5093 28.4156 21.5577 28.4484 20.3437C28.4812 19.8187 28.3172 19.3265 28.0219 18.9327V18.8999L32.2875 13.4858C32.3203 13.453 32.3531 13.453 32.3531 13.4858L35.1094 17.5546C35.1094 17.5874 35.1094 17.5874 35.1094 17.6202L27.6938 24.1499C27.2016 24.5765 26.9062 25.2327 26.9062 25.889V38.4562C26.9062 38.7515 26.9719 39.014 27.0375 39.2765C27.0375 39.3093 27.0703 39.3093 27.0703 39.3093C28.5141 39.3093 29.925 39.3093 31.3687 39.2765C31.4016 39.2765 31.4016 39.2765 31.4016 39.2437C31.5 38.9812 31.5328 38.7187 31.5328 38.4562V26.939V26.9062L36.1922 22.8046C36.225 22.7718 36.2578 22.8046 36.2578 22.8374L36.1594 30.1874C36.1594 31.0733 36.6188 31.8937 37.4062 32.2874L41.9016 34.7483C41.9344 34.7155 41.9344 34.7155 41.9672 34.7155V29.4983C42 29.5312 42 29.4983 41.9672 29.4983ZM20.8031 14.1421C22.2469 14.0437 23.3953 12.8952 23.4937 11.4515C23.5922 9.77803 22.2797 8.3999 20.6391 8.3999C19.0641 8.3999 17.7516 9.67959 17.7516 11.2546C17.7516 12.928 19.1297 14.2405 20.8031 14.1421ZM27.8578 8.3999C29.3016 8.30147 30.45 7.15303 30.5484 5.70928C30.6469 4.03584 29.3344 2.65771 27.6938 2.65771C26.1187 2.65771 24.8062 3.9374 24.8062 5.5124C24.7734 7.15303 26.1844 8.49834 27.8578 8.3999Z" fill="white"/>
</svg>
